:FULLY-SPECIFIED
:FORCE-ALL-JOINTS-BE-3DOF
:DEGREES
204
root 4.93097 15.0896 -25.4743 7.10141 0.0808761 5.43764
lfemur 6.36206 0.109023 0.3346
ltibia 7.18558 -0 0
lfoot -34.7313 -10.7076 0.290717
ltoes 46.2046 -0 0
rfemur -31.623 -19.5285 -8.23554
rtibia 52.3219 -0 0
rfoot -24.8374 16.2941 -0.66067
rtoes 59.5243 -0 0
lowerback -2.70949 -1.66187 -0.531826
upperback -0.635997 -2.13864 -7.36026
thorax 0.638825 -1.08741 -7.43315
lowerneck -11.3576 -0.0071255 6.54284
upperneck 3.78496 -1.13331 2.51157
head 3.24593 -0.341543 -0.395918
lclavicle -7.97077e-15 -5.93057e-14 -1.04725e-30
lhumerus -58.7948 -46.7733 116.337
lradius 53.9035 -0 0
lwrist 24.707 0 0
lhand 40.5331 29.3483 0.00806397
lfingers 7.12502 -0 0
lthumb 62.8331 39.7454 0.00311603
rclavicle -7.97077e-15 -5.93057e-14 -1.04725e-30
rhumerus -4.45709 -25.4353 -16.8969
rradius 55.4217 -0 0
rwrist -21.5839 0 0
rhand -37.6028 -58.2101 0.240492
rfingers 7.12502 -0 0
rthumb -10.655 -87.8966 0.230516
205
root 4.88465 15.0624 -25.4673 7.15881 -0.765834 5.52539
lfemur 7.01837 -0.804102 0.574723
ltibia 6.37404 -0 0
lfoot -35.4525 -11.2813 0.14896
ltoes 46.5789 -0 0
rfemur -31.7156 -19.8303 -8.35924
rtibia 51.733 -0 0
rfoot -25.6948 17.346 -0.338159
rtoes 59.9047 -0 0
lowerback -2.84319 -1.53029 -0.495847
upperback -0.663213 -1.96291 -7.51527
thorax 0.681508 -0.996715 -7.6259
lowerneck -11.381 0.171695 6.76765
upperneck 3.82926 -0.926229 2.439
head 3.25754 -0.237418 -0.448361
lclavicle -9.10409e-15 -6.06632e-14 -5.3705e-31
lhumerus -59.1067 -46.9184 116.432
lradius 53.9624 -0 0
lwrist 25.0144 0 0
lhand 40.6125 29.4973 0.00413526
lfingers 7.12502 -0 0
lthumb 62.8996 39.8142 0.00159792
rclavicle -9.10409e-15 -6.06632e-14 -5.3705e-31
rhumerus -3.38777 -26.1296 -15.473
rradius 54.4528 -0 0
rwrist -21.6827 0 0
rhand -37.9558 -59.1727 0.123202
rfingers 7.12502 -0 0
rthumb -10.996 -88.8527 0.118094
206
root 4.83833 15.0352 -25.4604 7.21493 -1.61263 5.61233
lfemur 7.67108 -1.71991 0.80445
ltibia 5.56251 0 0
lfoot -36.1723 -11.8531 0
ltoes 46.9532 0 0
rfemur -31.8077 -20.1323 -8.48266
rtibia 51.1441 0 0
rfoot -26.5461 18.393 0
rtoes 60.2851 0 0
lowerback -2.9768 -1.39862 -0.460177
upperback -0.690901 -1.78726 -7.67034
thorax 0.723885 -0.905881 -7.81859
lowerneck -11.4038 0.350607 6.99238
upperneck 3.87329 -0.719088 2.3666
head 3.26906 -0.133286 -0.50078
lclavicle -1.02374e-14 -6.20208e-14 0
lhumerus -59.4198 -47.063 116.529
lradius 54.0214 0 0
lwrist 25.3219 0 0
lhand 40.6919 29.6464 0
lfingers 7.12502 0 0
lthumb 62.9662 39.8829 0
rclavicle -1.02374e-14 -6.20208e-14 0
rhumerus -2.33153 -26.8475 -14.0552
rradius 53.4839 0 0
rwrist -21.7815 0 0
rhand -38.3067 -60.1346 0
rfingers 7.12502 0 0
rthumb -11.335 -449.808 0
207
root 4.88107 15.058 -25.4665 7.34341 -0.600791 5.34743
lfemur 6.62334 -0.927471 0.750655
ltibia 6.59124 -0 0
lfoot -35.7364 -11.5517 0.0463977
ltoes 46.6356 -0 0
rfemur -31.297 -19.5123 -8.29474
rtibia 50.8438 -0 0
rfoot -26.7729 17.1983 0.100736
rtoes 60.1488 -0 0
lowerback -2.89984 -1.43595 -0.405359
upperback -0.702269 -1.8405 -7.40056
thorax 0.675486 -0.935775 -7.56568
lowerneck -11.3722 0.207395 6.81648
upperneck 3.83146 -0.877029 2.32233
head 3.24888 -0.217225 -0.491844
lclavicle -1.05222e-14 -6.00911e-14 1.91865e-31
lhumerus -59.3244 -46.7149 116.663
lradius 54.2311 -0 0
lwrist 25.1203 0 0
lhand 39.8187 29.2378 0.12957
lfingers 7.12502 -0 0
lthumb 62.1626 39.8843 -0.000406676
rclavicle -1.05222e-14 -6.00911e-14 1.91865e-31
rhumerus -3.13088 -26.2436 -15.2108
rradius 53.6712 -0 0
rwrist -20.8779 0 0
rhand -37.7806 -59.3019 0.159413
rfingers 7.12502 -0 0
rthumb -10.827 -88.9762 0.153611
208
root 4.92381 15.0809 -25.4726 7.4672 0.411629 5.08481
lfemur 5.575 -0.136149 0.682385
ltibia 7.61997 -0 0
lfoot -35.3003 -11.2499 0.0905002
ltoes 46.3179 -0 0
rfemur -30.7861 -18.894 -8.10169
rtibia 50.5434 -0 0
rfoot -27.0017 16.0031 0.196722
rtoes 60.0125 -0 0
lowerback -2.82291 -1.47335 -0.350589
upperback -0.713888 -1.8937 -7.13077
thorax 0.626956 -0.965454 -7.31275
lowerneck -11.3402 0.0642808 6.64051
upperneck 3.78975 -1.035 2.27818
head 3.22868 -0.301163 -0.482879
lclavicle -1.08071e-14 -5.81615e-14 3.74137e-31
lhumerus -59.2284 -46.3669 116.796
lradius 54.4408 -0 0
lwrist 24.9187 0 0
lhand 38.9445 28.8273 0.252895
lfingers 7.12502 -0 0
lthumb 61.359 39.8857 -0.000793514
rclavicle -1.08071e-14 -5.81615e-14 3.74137e-31
rhumerus -3.93953 -25.6543 -16.3697
rradius 53.8584 -0 0
rwrist -19.9743 0 0
rhand -37.2522 -58.4678 0.311157
rfingers 7.12502 -0 0
rthumb -10.3169 -88.1431 0.299826
209
root 4.96655 15.1037 -25.4787 7.58639 1.4246 4.8243
lfemur 4.52565 0.653792 0.599645
ltibia 8.6487 -0 0
lfoot -34.864 -10.9478 0.132304
ltoes 46.0003 -0 0
rfemur -30.2748 -18.2773 -7.90354
rtibia 50.2431 -0 0
rfoot -27.2324 14.8076 0.287913
rtoes 59.8762 -0 0
lowerback -2.74602 -1.51082 -0.295866
upperback -0.725757 -1.94683 -6.86096
thorax 0.578295 -0.994919 -7.05978
lowerneck -11.3078 -0.0787345 6.46445
upperneck 3.74816 -1.19301 2.23414
head 3.20847 -0.385099 -0.473884
lclavicle -1.10919e-14 -5.62318e-14 5.46816e-31
lhumerus -59.1319 -46.019 116.93
lradius 54.6505 -0 0
lwrist 24.7172 0 0
lhand 38.0695 28.4149 0.369939
lfingers 7.12502 -0 0
lthumb 60.5553 39.8872 -0.00116044
rclavicle -1.10919e-14 -5.62318e-14 5.46816e-31
rhumerus -4.7573 -25.0798 -17.5322
rradius 54.0457 -0 0
rwrist -19.0707 0 0
rhand -36.7217 -57.6324 0.455188
rfingers 7.12502 -0 0
rthumb -9.80467 -87.3087 0.438602
210
root 5.0093 15.1266 -25.4848 7.70104 2.43811 4.56574
lfemur 3.47489 1.44208 0.502426
ltibia 9.67743 -0 0
lfoot -34.4274 -10.6453 0.171805
ltoes 45.6827 -0 0
rfemur -29.7631 -17.6623 -7.70032
rtibia 49.9428 -0 0
rfoot -27.4651 13.6117 0.37427
rtoes 59.7399 -0 0
lowerback -2.66915 -1.54837 -0.241192
upperback -0.737878 -1.99991 -6.59112
thorax 0.529503 -1.02417 -6.80679
lowerneck -11.2749 -0.221649 6.28831
upperneck 3.70669 -1.35104 2.1902
head 3.18825 -0.469033 -0.464859
lclavicle -1.13768e-14 -5.43021e-14 7.09902e-31
lhumerus -59.0348 -45.6714 117.063
lradius 54.8602 -0 0
lwrist 24.5156 0 0
lhand 37.1937 28.0008 0.480669
lfingers 7.12502 -0 0
lthumb 59.7517 39.8886 -0.00150738
rclavicle -1.13768e-14 -5.43021e-14 7.09902e-31
rhumerus -5.58398 -24.5205 -18.6982
rradius 54.2329 -0 0
rwrist -18.1671 0 0
rhand -36.1891 -56.7956 0.591461
rfingers 7.12502 -0 0
rthumb -9.29047 -86.4731 0.569899
211
root 5.05204 15.1494 -25.4909 7.81121 3.45212 4.30899
lfemur 2.42233 2.22846 0.390715
ltibia 10.7062 -0 0
lfoot -33.9907 -10.3426 0.209
ltoes 45.3651 -0 0
rfemur -29.2508 -17.049 -7.49203
rtibia 49.6425 -0 0
rfoot -27.6994 12.4155 0.455752
rtoes 59.6035 -0 0
lowerback -2.59232 -1.58599 -0.186565
upperback -0.750249 -2.05293 -6.32127
thorax 0.480583 -1.0532 -6.55378
lowerneck -11.2416 -0.364463 6.11209
upperneck 3.66534 -1.50911 2.14639
head 3.16801 -0.552967 -0.455804
lclavicle -1.16616e-14 -5.23725e-14 8.63394e-31
lhumerus -58.9372 -45.3238 117.197
lradius 55.0699 -0 0
lwrist 24.314 0 0
lhand 36.317 27.585 0.585053
lfingers 7.12502 -0 0
lthumb 58.9481 39.89 -0.00183427
rclavicle -1.16616e-14 -5.23725e-14 8.63394e-31
rhumerus -6.41936 -23.9765 -19.8679
rradius 54.4202 -0 0
rwrist -17.2635 0 0
rhand -35.6546 -55.9575 0.719937
rfingers 7.12502 -0 0
rthumb -8.7744 -85.6363 0.693678
212
root 5.09478 15.1723 -25.497 7.91695 4.46661 4.05387
lfemur 1.36758 3.01265 0.264488
ltibia 11.7349 -0 0
lfoot -33.5537 -10.0396 0.243887
ltoes 45.0474 -0 0
rfemur -28.7379 -16.4376 -7.27871
rtibia 49.3421 -0 0
rfoot -27.9355 11.2189 0.532322
rtoes 59.4672 -0 0
lowerback -2.51553 -1.62369 -0.131987
upperback -0.762869 -2.10589 -6.05139
thorax 0.431534 -1.08202 -6.30073
lowerneck -11.2078 -0.507173 5.93578
upperneck 3.6241 -1.66721 2.10268
head 3.14776 -0.636898 -0.446719
lclavicle -1.19465e-14 -5.04428e-14 1.00729e-30
lhumerus -58.839 -44.9765 117.331
lradius 55.2796 -0 0
lwrist 24.1124 0 0
lhand 35.4396 27.1677 0.683062
lfingers 7.12502 -0 0
lthumb 58.1445 39.8914 -0.00214104
rclavicle -1.19465e-14 -5.04428e-14 1.00729e-30
rhumerus -7.26325 -23.4483 -21.0414
rradius 54.6075 -0 0
rwrist -16.3599 0 0
rhand -35.1183 -55.1183 0.840575
rfingers 7.12502 -0 0
rthumb -8.25656 -84.7984 0.809902
213
root 5.13752 15.1951 -25.5031 8.01832 5.48155 3.80024
lfemur 0.310247 3.79438 0.123713
ltibia 12.7636 -0 0
lfoot -33.1166 -9.7364 0.276461
ltoes 44.7298 -0 0
rfemur -28.2241 -15.828 -7.06036
rtibia 49.0418 -0 0
rfoot -28.173 10.022 0.603947
rtoes 59.3309 -0 0
lowerback -2.43876 -1.66146 -0.0774566
upperback -0.77574 -2.1588 -5.7815
thorax 0.382357 -1.11062 -6.04766
lowerneck -11.1737 -0.649778 5.75938
upperneck 3.58298 -1.82535 2.05908
head 3.12749 -0.720828 -0.437604
lclavicle -1.22313e-14 -4.85131e-14 1.1416e-30
lhumerus -58.7402 -44.6293 117.464
lradius 55.4892 -0 0
lwrist 23.9108 0 0
lhand 34.5615 26.7489 0.774666
lfingers 7.12502 -0 0
lthumb 57.3408 39.8929 -0.00242763
rclavicle -1.22313e-14 -4.85131e-14 1.1416e-30
rhumerus -8.11544 -22.936 -22.2186
rradius 54.7947 -0 0
rwrist -15.4563 0 0
rhand -34.5802 -54.2779 0.95334
rfingers 7.12502 -0 0
rthumb -7.73706 -83.9594 0.918537
214
root 5.18026 15.218 -25.5092 8.11536 6.49694 3.54795
lfemur -0.750067 4.57338 -0.0316489
ltibia 13.7923 -0 0
lfoot -32.6793 -9.43291 0.30672
ltoes 44.4122 -0 0
rfemur -27.7095 -15.2203 -6.837
rtibia 48.7415 -0 0
rfoot -28.4121 8.82483 0.670593
rtoes 59.1946 -0 0
lowerback -2.36203 -1.69931 -0.0229749
upperback -0.788861 -2.21164 -5.51158
thorax 0.333055 -1.13901 -5.79456
lowerneck -11.139 -0.792277 5.58289
upperneck 3.54198 -1.98351 2.01559
head 3.10721 -0.804755 -0.428459
lclavicle -1.25162e-14 -4.65835e-14 1.26631e-30
lhumerus -58.6409 -44.2823 117.598
lradius 55.6989 -0 0
lwrist 23.7092 0 0
lhand 33.6828 26.3287 0.859839
lfingers 7.12502 -0 0
lthumb 56.5372 39.8943 -0.00269398
rclavicle -1.25162e-14 -4.65835e-14 1.26631e-30
rhumerus -8.9757 -22.4399 -23.3996
rradius 54.982 -0 0
rwrist -14.5527 0 0
rhand -34.0405 -53.4365 1.0582
rfingers 7.12502 -0 0
rthumb -7.21601 -83.1195 1.01955
215
root 5.223 15.2408 -25.5153 8.20809 7.51274 3.29684
lfemur -1.81375 5.34937 -0.201645
ltibia 14.8211 -0 0
lfoot -32.2419 -9.1292 0.334662
ltoes 44.0945 -0 0
rfemur -27.1939 -14.6146 -6.60864
rtibia 48.4412 -0 0
rfoot -28.6524 7.62736 0.73223
rtoes 59.0583 -0 0
lowerback -2.28533 -1.73723 0.0314582
upperback -0.802231 -2.26442 -5.24164
thorax 0.283627 -1.16717 -5.54144
lowerneck -11.1039 -0.93467 5.40631
upperneck 3.5011 -2.1417 1.97221
head 3.08692 -0.888681 -0.419284
lclavicle -1.2801e-14 -4.46538e-14 1.38143e-30
lhumerus -58.5411 -43.9354 117.732
lradius 55.9086 -0 0
lwrist 23.5077 0 0
lhand 32.8034 25.9073 0.938558
lfingers 7.12502 -0 0
lthumb 55.7336 39.8958 -0.00294005
rclavicle -1.2801e-14 -4.46538e-14 1.38143e-30
rhumerus -9.84382 -21.9604 -24.5844
rradius 55.1692 -0 0
rwrist -13.6491 0 0
rhand -33.4993 -52.5941 1.15511
rfingers 7.12502 -0 0
rthumb -6.69352 -82.2787 1.11291
216
root 5.26574 15.2637 -25.5214 8.29656 8.52893 3.04677
lfemur -2.88118 6.12209 -0.386331
ltibia 15.8498 -0 0
lfoot -31.8043 -8.82528 0.360284
ltoes 43.7769 -0 0
rfemur -26.6772 -14.0108 -6.37528
rtibia 48.1408 -0 0
rfoot -28.894 6.42961 0.78883
rtoes 58.922 -0 0
lowerback -2.20866 -1.77522 0.0858426
upperback -0.81585 -2.31713 -4.97168
thorax 0.234075 -1.19512 -5.28829
lowerneck -11.0684 -1.07695 5.22964
upperneck 3.46033 -2.29993 1.92894
head 3.06661 -0.972604 -0.410079
lclavicle -1.30858e-14 -4.27241e-14 1.48696e-30
lhumerus -58.4407 -43.5887 117.866
lradius 56.1183 -0 0
lwrist 23.3061 0 0
lhand 31.9234 25.4847 1.0108
lfingers 7.12502 -0 0
lthumb 54.93 39.8972 -0.00316579
rclavicle -1.30858e-14 -4.27241e-14 1.48696e-30
rhumerus -10.7196 -21.4975 -25.7729
rradius 55.3565 -0 0
rwrist -12.7455 0 0
rhand -32.9567 -51.7509 1.24406
rfingers 7.12502 -0 0
rthumb -6.1697 -81.437 1.19859
